<svg width="54" height="55" viewBox="0 0 54 55" fill="none" xmlns="http://www.w3.org/2000/svg">
<circle cx="27" cy="27.54" r="26.5" stroke="#F2F3F3"/>
<path d="M28.5547 27.5518H23.5781V29.3564H26.5586C26.4492 30.1221 25.6562 31.626 23.5781 31.626C21.8008 31.626 20.3242 30.1494 20.3242 28.29C20.3242 26.458 21.8008 24.9814 23.5781 24.9814C24.6172 24.9814 25.3008 25.4189 25.6836 25.8018L27.1055 24.4346C26.1758 23.5596 25 23.04 23.5781 23.04C20.6797 23.04 18.3281 25.3916 18.3281 28.29C18.3281 31.2158 20.6797 33.54 23.5781 33.54C26.6133 33.54 28.6367 31.4346 28.6367 28.4268C28.6367 28.0713 28.582 27.8252 28.5547 27.5518ZM33.6133 27.7158V26.2119H32.082V27.7158H30.5508V29.2471H32.082V30.7783H33.6133V29.2471H35.1445V27.7158H33.6133Z" fill="#BDD3DF"/>
</svg>
