<svg width="54" height="55" viewBox="0 0 54 55" fill="none" xmlns="http://www.w3.org/2000/svg">
<circle cx="27" cy="27.54" r="26.5" stroke="#13F1FC"/>
<path d="M32.5508 25.4463C33.0977 25.0361 33.5898 24.5439 33.9727 23.9697C33.4805 24.1885 32.9062 24.3525 32.332 24.4072C32.9336 24.0518 33.3711 23.5049 33.5898 22.8213C33.043 23.1494 32.4141 23.3955 31.7852 23.5322C31.2383 22.958 30.5 22.6299 29.6797 22.6299C28.0938 22.6299 26.8086 23.915 26.8086 25.501C26.8086 25.7197 26.8359 25.9385 26.8906 26.1572C24.5117 26.0205 22.3789 24.8721 20.957 23.1494C20.7109 23.5596 20.5742 24.0518 20.5742 24.5986C20.5742 25.583 21.0664 26.458 21.8594 26.9775C21.3945 26.9502 20.9297 26.8408 20.5469 26.6221V26.6494C20.5469 28.0439 21.5312 29.1924 22.8438 29.4658C22.625 29.5205 22.3516 29.5752 22.1055 29.5752C21.9141 29.5752 21.75 29.5479 21.5586 29.5205C21.9141 30.6689 22.9805 31.4893 24.2383 31.5166C23.2539 32.2822 22.0234 32.7471 20.6836 32.7471C20.4375 32.7471 20.2188 32.7197 20 32.6924C21.2578 33.5127 22.7617 33.9775 24.4023 33.9775C29.6797 33.9775 32.5508 29.6299 32.5508 25.8291C32.5508 25.6924 32.5508 25.583 32.5508 25.4463Z" fill="#13F1FC"/>
</svg>
