<svg width="28" height="16" viewBox="0 0 28 16" fill="none" xmlns="http://www.w3.org/2000/svg">
<path d="M20.1143 11.6964C20.7237 11.6964 21.2393 11.2277 21.2393 10.5714C21.2393 9.96204 20.7237 9.44641 20.1143 9.44641C19.5049 9.44641 18.9893 9.96204 18.9893 10.5714C18.9893 11.2277 19.5049 11.6964 20.1143 11.6964ZM7.69244 11.6964C8.30182 11.6964 8.81744 11.2277 8.81744 10.5714C8.81744 9.96204 8.30182 9.44641 7.69244 9.44641C7.08307 9.44641 6.56744 9.96204 6.56744 10.5714C6.56744 11.2277 7.08307 11.6964 7.69244 11.6964ZM20.5362 4.94641C24.3799 7.05579 27.0049 10.9464 27.4268 15.5402H0.426819C0.801819 10.9464 3.42682 7.05579 7.27057 4.94641L5.02057 1.05579C4.97369 0.962036 4.97369 0.868286 4.97369 0.774536C4.97369 0.540161 5.16119 0.305786 5.44244 0.305786C5.62994 0.305786 5.77057 0.446411 5.86432 0.587036L8.11432 4.52454C9.89557 3.72766 11.8643 3.30579 13.9268 3.30579C15.9893 3.30579 17.9112 3.72766 19.6924 4.52454L21.9424 0.587036C22.0362 0.446411 22.1768 0.305786 22.3643 0.305786C22.6456 0.305786 22.8331 0.540161 22.8331 0.774536C22.8331 0.868286 22.8331 0.962036 22.7862 1.05579L20.5362 4.94641Z" fill="white"/>
</svg>
