<svg width="1440" height="1411" viewBox="0 0 1440 1411" fill="none" xmlns="http://www.w3.org/2000/svg">
<path d="M-38.0013 304.173C-116.41 387.57 -45.3737 651.832 -17.0543 720.555C46.4483 875.468 -59.4249 857.441 -62.3864 998.059C-65.3479 1138.68 221.818 1216.62 487.178 1137.76C807.191 1042.66 687.064 993.38 1121.09 1008.76C1555.12 1024.13 1600.57 639.195 1573.12 593.769C1549.86 555.273 1600.47 388.877 1531.93 361.54C1499.63 348.659 1499.93 239.04 1388.86 262.227C1267.4 287.582 1163.79 108.29 1039.16 198.281C914.537 288.273 908.119 80.2032 730.135 139.749C552.151 199.295 347.244 131.617 244.927 185.54C48.8699 288.866 59.1873 200.802 -38.0013 304.173Z" fill="url(#paint0_linear)"/>
<path d="M176 755.136C106 744.336 29.5 814.969 0 851.636L-8 1410.54H1495V886.136C1422 911.136 1441 797.636 1291 705.136C1141 612.636 1034 776.636 915 845.636C796 914.636 693.5 731.136 608 727.636C522.5 724.136 499 805.136 405 851.636C311 898.135 263.5 768.636 176 755.136Z" fill="white"/>
<defs>
<linearGradient id="paint0_linear" x1="-80.4527" y1="345.598" x2="1861.85" y2="852.308" gradientUnits="userSpaceOnUse">
<stop stop-color="#0470DC"/>
<stop offset="1" stop-color="#70DDFF"/>
</linearGradient>
</defs>
</svg>
