<svg width="19" height="22" viewBox="0 0 19 22" fill="none" xmlns="http://www.w3.org/2000/svg">
<path d="M15.3333 11.1495C15.3333 9.41516 16.1301 8.14954 17.677 7.16516C16.7864 5.89954 15.4739 5.24329 13.7395 5.10266C12.052 4.96204 10.2239 6.04016 9.56763 6.04016C8.8645 6.04016 7.27075 5.14954 6.00513 5.14954C3.38013 5.19641 0.614502 7.21204 0.614502 11.3839C0.614502 12.6027 0.802002 13.8683 1.27075 15.1808C1.88013 16.9152 4.03638 21.1339 6.28638 21.0402C7.45825 21.0402 8.302 20.1964 9.84888 20.1964C11.3489 20.1964 12.0989 21.0402 13.4114 21.0402C15.7083 21.0402 17.677 17.1964 18.2395 15.462C15.1926 14.0089 15.3333 11.2433 15.3333 11.1495ZM12.7083 3.46204C13.9739 1.96204 13.8333 0.555786 13.8333 0.0401611C12.7083 0.133911 11.3958 0.837036 10.6458 1.68079C9.802 2.61829 9.33325 3.79016 9.427 5.05579C10.6458 5.14954 11.7708 4.54016 12.7083 3.46204Z" fill="white"/>
</svg>
